<svg width="455" height="166" viewBox="0 0 455 166" fill="none" xmlns="http://www.w3.org/2000/svg">
<g filter="url(#filter0_dd_49_122)">
<path d="M28.3275 66.1942C28.3275 48.9502 28.3275 40.3282 31.6834 33.7418C34.6354 27.9483 39.3456 23.238 45.1391 20.2861C51.7255 16.9302 60.3475 16.9302 77.5915 16.9302H107.064C124.308 16.9302 132.93 16.9302 139.516 20.2861C145.309 23.238 150.02 27.9483 152.972 33.7418C156.328 40.3282 156.328 48.9502 156.328 66.1942V95.6662C156.328 112.91 156.328 121.532 152.972 128.119C150.02 133.912 145.309 138.622 139.516 141.574C132.93 144.93 124.308 144.93 107.064 144.93H77.5915C60.3475 144.93 51.7255 144.93 45.1391 141.574C39.3456 138.622 34.6354 133.912 31.6834 128.119C28.3275 121.532 28.3275 112.91 28.3275 95.6662V66.1942Z" fill="#3B82F6"/>
<path d="M77.5912 17.1802H107.064C115.69 17.1802 122.144 17.1807 127.266 17.5991C132.385 18.0173 136.151 18.8523 139.403 20.5093C145.149 23.4372 149.82 28.1089 152.748 33.855C154.405 37.107 155.24 40.8729 155.659 45.9917C156.077 51.1134 156.078 57.5679 156.078 66.1938V95.6665C156.078 104.292 156.077 110.747 155.659 115.869C155.24 120.987 154.405 124.753 152.748 128.005C149.82 133.751 145.149 138.423 139.403 141.351C136.151 143.008 132.385 143.843 127.266 144.261C122.144 144.68 115.69 144.68 107.064 144.68H77.5912C68.9652 144.68 62.5107 144.68 57.389 144.261C52.2702 143.843 48.5044 143.008 45.2523 141.351C39.5062 138.423 34.8345 133.751 31.9066 128.005C30.2496 124.753 29.4147 120.987 28.9965 115.869C28.578 110.747 28.5775 104.292 28.5775 95.6665V66.1938C28.5775 57.5679 28.578 51.1134 28.9965 45.9917C29.4147 40.8729 30.2496 37.107 31.9066 33.855C34.8345 28.1089 39.5062 23.4372 45.2523 20.5093C48.5044 18.8523 52.2702 18.0173 57.389 17.5991C62.5107 17.1807 68.9652 17.1802 77.5912 17.1802Z" stroke="url(#paint0_linear_49_122)" stroke-width="0.5"/>
</g>
<g filter="url(#filter1_d_49_122)">
<path d="M92.0294 91.8281C84.4206 91.8281 78.2516 85.4997 78.2516 77.6974C78.2516 69.8953 84.4206 63.5669 92.0294 63.5669C99.6385 63.5669 105.8 69.8953 105.8 77.6974C105.8 85.4997 99.6313 91.8281 92.0294 91.8281ZM136.596 95.3463C135.678 99.0377 133.314 102.339 129.792 104.282C127.053 105.8 124.032 106.262 121.173 105.814C116.889 105.142 112.513 105.814 108.694 107.931L107.981 108.328C104.17 110.438 101.205 113.818 99.4053 117.864C98.2056 120.559 96.1657 122.899 93.427 124.417C91.7966 125.32 90.0672 125.847 88.3238 126.035C83.3618 127.053 78.0469 125.226 74.7295 120.855C72.8167 118.334 71.8708 115.35 71.8355 112.388C71.779 107.945 70.3955 103.625 67.7416 100.114L67.2405 99.4567C64.5795 95.9461 60.8386 93.5112 56.66 92.3555C53.8649 91.5824 51.2886 89.9064 49.3758 87.3849C44.7243 81.2444 45.7832 72.4021 51.7404 67.598C57.6906 62.8011 66.1888 63.7764 70.9532 69.8158C72.9719 72.3804 73.9742 75.4291 74.0236 78.4776C74.0942 83.0652 75.6258 87.4934 78.3715 91.1128C80.6725 94.147 83.7217 96.4731 87.1874 97.8531C87.7804 97.8673 88.3663 97.918 88.9449 98.0046C93.3633 98.6911 97.8807 97.8749 101.812 95.6928C105.511 93.6485 108.511 90.4987 110.416 86.67C110.557 86.1426 110.72 85.6223 110.918 85.1167C112.513 80.9845 112.844 76.4475 111.687 72.1637L111.468 71.3546C110.311 67.0706 107.763 63.3501 104.318 60.6555C104.297 60.6338 104.269 60.6194 104.247 60.5977C100.824 57.9898 96.7163 56.5016 92.4457 56.5016H91.6343C87.3004 56.5016 83.1289 58.0331 79.6703 60.7205C77.3622 62.5121 74.4965 63.5741 71.3767 63.5741C63.7961 63.5741 57.6412 57.289 57.6059 49.5157C57.5636 41.7497 63.5278 35.4646 71.1014 35.3129C74.3129 35.2479 77.2775 36.3098 79.6491 38.1376C83.2206 40.8972 87.5757 42.3782 92.0438 42.3782C96.5115 42.3782 100.866 40.8972 104.438 38.1376C106.81 36.3098 109.774 35.2479 112.986 35.3129H112.993C114.15 35.3346 115.294 35.5079 116.388 35.8114C116.423 35.8186 116.451 35.833 116.486 35.8402C116.656 35.8908 116.825 35.9414 116.995 35.9992C117.122 36.0425 117.249 36.0859 117.369 36.1364C117.446 36.1653 117.517 36.187 117.588 36.2159C117.778 36.2882 117.962 36.3676 118.145 36.4471C118.145 36.4471 118.166 36.4543 118.174 36.4615C122.409 38.3254 125.507 42.2987 126.276 47.1028C126.284 47.1462 126.29 47.1895 126.298 47.2401C126.312 47.3412 126.326 47.4424 126.34 47.5507C126.361 47.7169 126.382 47.883 126.397 48.0492C126.397 48.0709 126.397 48.0853 126.397 48.107C126.601 50.2598 126.312 52.3765 125.613 54.3271C125.606 54.3487 125.592 54.3776 125.585 54.3993C125.557 54.4716 125.528 54.551 125.5 54.6232C123.863 58.8928 123.637 63.5885 124.822 68.0098C126.015 72.431 128.564 76.3391 132.107 79.1352C134.457 80.9916 136.25 83.6429 137.041 86.8362C137.775 89.7838 137.556 92.7381 136.582 95.368L136.596 95.3463Z" fill="white"/>
</g>
<path d="M183.177 106V64.464H170.377V59.216H201.737V64.464H188.937V106H183.177ZM211.312 106V59.28H217.072V85.328H223.856L234.096 70.8H240.688L228.848 87.568L240.88 106H234.16L223.92 90.32H217.072V106H211.312ZM249.047 106V100.752H261.527V76.048H250.647V70.8H267.287V100.752H279.127V106H249.047ZM263.767 64.464C262.359 64.464 261.249 64.1013 260.439 63.376C259.628 62.6507 259.223 61.6693 259.223 60.432C259.223 59.152 259.628 58.1493 260.439 57.424C261.249 56.656 262.359 56.272 263.767 56.272C265.175 56.272 266.284 56.656 267.095 57.424C267.905 58.1493 268.311 59.152 268.311 60.432C268.311 61.6693 267.905 62.6507 267.095 63.376C266.284 64.1013 265.175 64.464 263.767 64.464ZM305.022 106C301.992 106 299.624 105.189 297.918 103.568C296.254 101.947 295.422 99.664 295.422 96.72V76.048H285.502V70.8H295.422V60.88H301.182V70.8H315.262V76.048H301.182V96.72C301.182 99.408 302.462 100.752 305.022 100.752H314.622V106H305.022Z" fill="#3B82F7"/>
<path d="M339.557 106.64C337.935 106.64 336.634 106.171 335.653 105.232C334.714 104.293 334.245 103.035 334.245 101.456C334.245 99.792 334.714 98.4693 335.653 97.488C336.634 96.5067 337.935 96.016 339.557 96.016C341.178 96.016 342.458 96.5067 343.397 97.488C344.378 98.4693 344.869 99.792 344.869 101.456C344.869 103.035 344.378 104.293 343.397 105.232C342.458 106.171 341.178 106.64 339.557 106.64ZM374.86 106.64C371.148 106.64 368.225 105.701 366.092 103.824C363.958 101.904 362.892 99.3227 362.892 96.08C362.892 92.7947 363.958 90.2133 366.092 88.336C368.225 86.4587 371.105 85.52 374.732 85.52H385.612V82C385.612 79.824 384.95 78.16 383.628 77.008C382.348 75.8133 380.513 75.216 378.124 75.216C376.033 75.216 374.284 75.664 372.876 76.56C371.468 77.4133 370.657 78.5867 370.444 80.08H364.684C365.068 77.0507 366.497 74.64 368.972 72.848C371.446 71.056 374.54 70.16 378.252 70.16C382.305 70.16 385.505 71.2053 387.852 73.296C390.198 75.3867 391.372 78.224 391.372 81.808V106H385.74V99.28H384.78L385.74 98.32C385.74 100.88 384.737 102.907 382.732 104.4C380.769 105.893 378.145 106.64 374.86 106.64ZM376.268 102.096C378.998 102.096 381.238 101.413 382.988 100.048C384.737 98.6827 385.612 96.9333 385.612 94.8V89.808H374.86C372.94 89.808 371.425 90.3413 370.316 91.408C369.206 92.4747 368.652 93.9253 368.652 95.76C368.652 97.7227 369.313 99.28 370.636 100.432C372.001 101.541 373.878 102.096 376.268 102.096ZM402.547 106V100.752H415.027V76.048H404.147V70.8H420.787V100.752H432.627V106H402.547ZM417.267 64.464C415.859 64.464 414.749 64.1013 413.939 63.376C413.128 62.6507 412.723 61.6693 412.723 60.432C412.723 59.152 413.128 58.1493 413.939 57.424C414.749 56.656 415.859 56.272 417.267 56.272C418.675 56.272 419.784 56.656 420.595 57.424C421.405 58.1493 421.811 59.152 421.811 60.432C421.811 61.6693 421.405 62.6507 420.595 63.376C419.784 64.1013 418.675 64.464 417.267 64.464Z" fill="#808080"/>
<defs>
<filter id="filter0_dd_49_122" x="24.3275" y="13.9302" width="136" height="136" filterUnits="userSpaceOnUse" color-interpolation-filters="sRGB">
<feFlood flood-opacity="0" result="BackgroundImageFix"/>
<feColorMatrix in="SourceAlpha" type="matrix" values="0 0 0 0 0 0 0 0 0 0 0 0 0 0 0 0 0 0 127 0" result="hardAlpha"/>
<feOffset dy="1"/>
<feGaussianBlur stdDeviation="1"/>
<feColorMatrix type="matrix" values="0 0 0 0 0 0 0 0 0 0 0 0 0 0 0 0 0 0 0.3 0"/>
<feBlend mode="normal" in2="BackgroundImageFix" result="effect1_dropShadow_49_122"/>
<feColorMatrix in="SourceAlpha" type="matrix" values="0 0 0 0 0 0 0 0 0 0 0 0 0 0 0 0 0 0 127 0" result="hardAlpha"/>
<feMorphology radius="1" operator="dilate" in="SourceAlpha" result="effect2_dropShadow_49_122"/>
<feOffset dy="1"/>
<feGaussianBlur stdDeviation="1.5"/>
<feColorMatrix type="matrix" values="0 0 0 0 0 0 0 0 0 0 0 0 0 0 0 0 0 0 0.15 0"/>
<feBlend mode="normal" in2="effect1_dropShadow_49_122" result="effect2_dropShadow_49_122"/>
<feBlend mode="normal" in="SourceGraphic" in2="effect2_dropShadow_49_122" result="shape"/>
</filter>
<filter id="filter1_d_49_122" x="42.4767" y="35.3101" width="99" height="99" filterUnits="userSpaceOnUse" color-interpolation-filters="sRGB">
<feFlood flood-opacity="0" result="BackgroundImageFix"/>
<feColorMatrix in="SourceAlpha" type="matrix" values="0 0 0 0 0 0 0 0 0 0 0 0 0 0 0 0 0 0 127 0" result="hardAlpha"/>
<feOffset dy="4"/>
<feGaussianBlur stdDeviation="2"/>
<feComposite in2="hardAlpha" operator="out"/>
<feColorMatrix type="matrix" values="0 0 0 0 0 0 0 0 0 0 0 0 0 0 0 0 0 0 0.25 0"/>
<feBlend mode="normal" in2="BackgroundImageFix" result="effect1_dropShadow_49_122"/>
<feBlend mode="normal" in="SourceGraphic" in2="effect1_dropShadow_49_122" result="shape"/>
</filter>
<linearGradient id="paint0_linear_49_122" x1="92.3275" y1="144.93" x2="92.3275" y2="16.9302" gradientUnits="userSpaceOnUse">
<stop stop-color="#D9D9D9"/>
</linearGradient>
</defs>
</svg>
