<svg width="455" height="166" viewBox="0 0 455 166" fill="none" xmlns="http://www.w3.org/2000/svg">
<g filter="url(#filter0_dd_82_32)">
<path d="M28.3276 66.1942C28.3276 48.9502 28.3276 40.3282 31.6835 33.7418C34.6354 27.9483 39.3457 23.238 45.1392 20.2861C51.7256 16.9302 60.3476 16.9302 77.5916 16.9302H107.064C124.308 16.9302 132.93 16.9302 139.516 20.2861C145.309 23.238 150.02 27.9483 152.972 33.7418C156.328 40.3282 156.328 48.9502 156.328 66.1942V95.6662C156.328 112.91 156.328 121.532 152.972 128.119C150.02 133.912 145.309 138.622 139.516 141.574C132.93 144.93 124.308 144.93 107.064 144.93H77.5916C60.3476 144.93 51.7256 144.93 45.1392 141.574C39.3457 138.622 34.6354 133.912 31.6835 128.119C28.3276 121.532 28.3276 112.91 28.3276 95.6662V66.1942Z" fill="#3B82F6"/>
<path d="M77.5912 17.1802H107.064C115.69 17.1802 122.144 17.1807 127.266 17.5991C132.385 18.0173 136.151 18.8523 139.403 20.5093C145.149 23.4372 149.821 28.1089 152.748 33.855C154.405 37.107 155.24 40.8729 155.659 45.9917C156.077 51.1134 156.078 57.5679 156.078 66.1938V95.6665C156.078 104.292 156.077 110.747 155.659 115.869C155.24 120.987 154.405 124.753 152.748 128.005C149.821 133.751 145.149 138.423 139.403 141.351C136.151 143.008 132.385 143.843 127.266 144.261C122.144 144.68 115.69 144.68 107.064 144.68H77.5912C68.9653 144.68 62.5108 144.68 57.3891 144.261C52.2703 143.843 48.5044 143.008 45.2524 141.351C39.5063 138.423 34.8346 133.751 31.9067 128.005C30.2497 124.753 29.4147 120.987 28.9965 115.869C28.5781 110.747 28.5776 104.292 28.5776 95.6665V66.1938L28.5844 60.1187C28.6041 54.4241 28.6827 49.833 28.9965 45.9917C29.4147 40.8729 30.2497 37.107 31.9067 33.855C34.8346 28.1089 39.5063 23.4372 45.2524 20.5093C48.5044 18.8523 52.2703 18.0173 57.3891 17.5991C62.5108 17.1807 68.9653 17.1802 77.5912 17.1802Z" stroke="url(#paint0_linear_82_32)" stroke-width="0.5"/>
</g>
<path d="M53.41 119.31H47.4767V106.93H53.41V119.31Z" fill="white"/>
<path fill-rule="evenodd" clip-rule="evenodd" d="M112.743 49.844H118.677V56.034H124.61V62.2241H130.543V68.5861H136.312V99.8802H130.543V106.93H124.61V87.6721H118.677V106.586H112.743V119.31H106.81V87.6721H100.877V106.586H94.9434V119.31H89.01V106.586H83.0767V87.6721H77.1434V119.31H71.21V106.586H65.2767V87.6721H59.3434V106.93H53.41V99.8802H47.6415V68.5861H53.41V62.2241H59.3434V56.034H65.2767V49.844H71.21V43.3101H112.743V49.844ZM65.2767 68.758H71.21V62.2241H65.2767V68.758ZM112.743 68.758H118.677V62.2241H112.743V68.758Z" fill="white"/>
<path d="M136.477 119.31H130.543V106.93H136.477V119.31Z" fill="white"/>
<path d="M183.177 106V64.464H170.377V59.216H201.737V64.464H188.937V106H183.177ZM224.432 106.64C221.658 106.64 219.226 106.085 217.136 104.976C215.088 103.867 213.488 102.309 212.336 100.304C211.226 98.256 210.672 95.888 210.672 93.2V83.6C210.672 80.8693 211.226 78.5013 212.336 76.496C213.488 74.4907 215.088 72.9333 217.136 71.824C219.226 70.7147 221.658 70.16 224.432 70.16C227.205 70.16 229.616 70.7147 231.664 71.824C233.754 72.9333 235.354 74.4907 236.464 76.496C237.616 78.5013 238.192 80.8693 238.192 83.6V89.808H216.304V93.2C216.304 95.9733 217.008 98.1067 218.416 99.6C219.824 101.051 221.829 101.776 224.432 101.776C226.65 101.776 228.442 101.392 229.808 100.624C231.173 99.8133 232.005 98.6187 232.304 97.04H238.064C237.68 99.984 236.229 102.331 233.712 104.08C231.237 105.787 228.144 106.64 224.432 106.64ZM232.56 85.968V83.6C232.56 80.8267 231.856 78.6933 230.448 77.2C229.082 75.7067 227.077 74.96 224.432 74.96C221.829 74.96 219.824 75.7067 218.416 77.2C217.008 78.6933 216.304 80.8267 216.304 83.6V85.456H233.008L232.56 85.968ZM249.495 106V70.8H255.255V77.52H256.471L255.255 78.864C255.255 76.0907 256.087 73.9573 257.751 72.464C259.415 70.928 261.719 70.16 264.663 70.16C268.204 70.16 271.02 71.248 273.111 73.424C275.201 75.6 276.247 78.5653 276.247 82.32V106H270.487V82.96C270.487 80.4427 269.804 78.5227 268.439 77.2C267.116 75.8347 265.303 75.152 262.999 75.152C260.609 75.152 258.711 75.8773 257.303 77.328C255.937 78.7787 255.255 80.8693 255.255 83.6V106H249.495ZM305.022 106C301.992 106 299.624 105.189 297.918 103.568C296.254 101.947 295.422 99.664 295.422 96.72V76.048H285.502V70.8H295.422V60.88H301.182V70.8H315.262V76.048H301.182V96.72C301.182 99.408 302.462 100.752 305.022 100.752H314.622V106H305.022ZM339.557 106.64C335.205 106.64 331.877 105.445 329.573 103.056C327.269 100.624 326.117 97.3387 326.117 93.2V59.28H331.877V93.2C331.877 95.76 332.495 97.7867 333.733 99.28C335.013 100.773 336.954 101.52 339.557 101.52C342.117 101.52 344.037 100.773 345.317 99.28C346.597 97.7867 347.237 95.76 347.237 93.2V59.28H352.997V93.2C352.997 97.3813 351.845 100.667 349.541 103.056C347.279 105.445 343.951 106.64 339.557 106.64ZM365.452 106V100.752H374.988V64.528H365.452V59.28H390.412V64.528H380.876V100.752H390.412V106H365.452Z" fill="#3B82F7"/>
<defs>
<filter id="filter0_dd_82_32" x="24.3276" y="13.9302" width="136" height="136" filterUnits="userSpaceOnUse" color-interpolation-filters="sRGB">
<feFlood flood-opacity="0" result="BackgroundImageFix"/>
<feColorMatrix in="SourceAlpha" type="matrix" values="0 0 0 0 0 0 0 0 0 0 0 0 0 0 0 0 0 0 127 0" result="hardAlpha"/>
<feOffset dy="1"/>
<feGaussianBlur stdDeviation="1"/>
<feColorMatrix type="matrix" values="0 0 0 0 0 0 0 0 0 0 0 0 0 0 0 0 0 0 0.3 0"/>
<feBlend mode="normal" in2="BackgroundImageFix" result="effect1_dropShadow_82_32"/>
<feColorMatrix in="SourceAlpha" type="matrix" values="0 0 0 0 0 0 0 0 0 0 0 0 0 0 0 0 0 0 127 0" result="hardAlpha"/>
<feMorphology radius="1" operator="dilate" in="SourceAlpha" result="effect2_dropShadow_82_32"/>
<feOffset dy="1"/>
<feGaussianBlur stdDeviation="1.5"/>
<feColorMatrix type="matrix" values="0 0 0 0 0 0 0 0 0 0 0 0 0 0 0 0 0 0 0.15 0"/>
<feBlend mode="normal" in2="effect1_dropShadow_82_32" result="effect2_dropShadow_82_32"/>
<feBlend mode="normal" in="SourceGraphic" in2="effect2_dropShadow_82_32" result="shape"/>
</filter>
<linearGradient id="paint0_linear_82_32" x1="92.3276" y1="144.93" x2="92.3276" y2="16.9302" gradientUnits="userSpaceOnUse">
<stop stop-color="#D9D9D9"/>
</linearGradient>
</defs>
</svg>
