<svg width="150" height="150" viewBox="0 0 150 150" fill="none" xmlns="http://www.w3.org/2000/svg">
<g filter="url(#filter0_dd_82_53)">
<path d="M10.8509 57.8841C10.8509 40.6401 10.8509 32.0181 14.2068 25.4317C17.1587 19.6382 21.869 14.928 27.6625 11.976C34.2489 8.62012 42.8709 8.62012 60.1149 8.62012H89.5869C106.831 8.62012 115.453 8.62012 122.039 11.976C127.833 14.928 132.543 19.6382 135.495 25.4317C138.851 32.0181 138.851 40.6401 138.851 57.8841V87.3561C138.851 104.6 138.851 113.222 135.495 119.808C132.543 125.602 127.833 130.312 122.039 133.264C115.453 136.62 106.831 136.62 89.5869 136.62H60.1149C42.8709 136.62 34.2489 136.62 27.6625 133.264C21.869 130.312 17.1587 125.602 14.2068 119.808C10.8509 113.222 10.8509 104.6 10.8509 87.3561V57.8841Z" fill="#3B82F6"/>
<path d="M60.1146 8.87012H89.5872C98.2132 8.87012 104.668 8.8706 109.789 9.28906C114.908 9.70729 118.674 10.5422 121.926 12.1992C127.672 15.1271 132.344 19.7988 135.272 25.5449C136.929 28.797 137.764 32.5628 138.182 37.6816C138.6 42.8033 138.601 49.2578 138.601 57.8838V87.3564C138.601 95.9824 138.6 102.437 138.182 107.559C137.764 112.677 136.929 116.443 135.272 119.695C132.344 125.441 127.672 130.113 121.926 133.041C118.674 134.698 114.908 135.533 109.789 135.951C104.668 136.37 98.2132 136.37 89.5872 136.37H60.1146C51.4886 136.37 45.0341 136.37 39.9124 135.951C34.7936 135.533 31.0277 134.698 27.7757 133.041C22.0296 130.113 17.3579 125.441 14.43 119.695C12.773 116.443 11.9381 112.677 11.5198 107.559C11.1014 102.437 11.1009 95.9824 11.1009 87.3564V57.8838L11.1077 51.8086C11.1274 46.114 11.206 41.523 11.5198 37.6816C11.9381 32.5628 12.773 28.797 14.43 25.5449C17.3579 19.7988 22.0296 15.1271 27.7757 12.1992C31.0277 10.5422 34.7936 9.70729 39.9124 9.28906C45.0341 8.8706 51.4886 8.87012 60.1146 8.87012Z" stroke="url(#paint0_linear_82_53)" stroke-width="0.5"/>
</g>
<path d="M35.9333 111H30V98.6199H35.9333V111Z" fill="white"/>
<path fill-rule="evenodd" clip-rule="evenodd" d="M95.2667 41.5339H101.2V47.724H107.133V53.914H113.067V60.276H118.835V91.5701H113.067V98.6199H107.133V79.362H101.2V98.276H95.2667V111H89.3333V79.362H83.4V98.276H77.4667V111H71.5333V98.276H65.6V79.362H59.6667V111H53.7333V98.276H47.8V79.362H41.8667V98.6199H35.9333V91.5701H30.1648V60.276H35.9333V53.914H41.8667V47.724H47.8V41.5339H53.7333V35H95.2667V41.5339ZM47.8 60.448H53.7333V53.914H47.8V60.448ZM95.2667 60.448H101.2V53.914H95.2667V60.448Z" fill="white"/>
<path d="M119 111H113.067V98.6199H119V111Z" fill="white"/>
<defs>
<filter id="filter0_dd_82_53" x="6.85089" y="5.62012" width="136" height="136" filterUnits="userSpaceOnUse" color-interpolation-filters="sRGB">
<feFlood flood-opacity="0" result="BackgroundImageFix"/>
<feColorMatrix in="SourceAlpha" type="matrix" values="0 0 0 0 0 0 0 0 0 0 0 0 0 0 0 0 0 0 127 0" result="hardAlpha"/>
<feOffset dy="1"/>
<feGaussianBlur stdDeviation="1"/>
<feColorMatrix type="matrix" values="0 0 0 0 0 0 0 0 0 0 0 0 0 0 0 0 0 0 0.3 0"/>
<feBlend mode="normal" in2="BackgroundImageFix" result="effect1_dropShadow_82_53"/>
<feColorMatrix in="SourceAlpha" type="matrix" values="0 0 0 0 0 0 0 0 0 0 0 0 0 0 0 0 0 0 127 0" result="hardAlpha"/>
<feMorphology radius="1" operator="dilate" in="SourceAlpha" result="effect2_dropShadow_82_53"/>
<feOffset dy="1"/>
<feGaussianBlur stdDeviation="1.5"/>
<feColorMatrix type="matrix" values="0 0 0 0 0 0 0 0 0 0 0 0 0 0 0 0 0 0 0.15 0"/>
<feBlend mode="normal" in2="effect1_dropShadow_82_53" result="effect2_dropShadow_82_53"/>
<feBlend mode="normal" in="SourceGraphic" in2="effect2_dropShadow_82_53" result="shape"/>
</filter>
<linearGradient id="paint0_linear_82_53" x1="74.8509" y1="136.62" x2="74.8509" y2="8.62012" gradientUnits="userSpaceOnUse">
<stop stop-color="#D9D9D9"/>
</linearGradient>
</defs>
</svg>
