<svg width="89" height="76" viewBox="0 0 89 76" fill="none" xmlns="http://www.w3.org/2000/svg">
<path d="M5.93333 76H0V63.6199H5.93333V76Z" fill="black"/>
<path fill-rule="evenodd" clip-rule="evenodd" d="M65.2667 6.53394H71.2V12.724H77.1333V18.914H83.0667V25.276H88.8352V56.5701H83.0667V63.6199H77.1333V44.362H71.2V63.276H65.2667V76H59.3333V44.362H53.4V63.276H47.4667V76H41.5333V63.276H35.6V44.362H29.6667V76H23.7333V63.276H17.8V44.362H11.8667V63.6199H5.93333V56.5701H0.164815V25.276H5.93333V18.914H11.8667V12.724H17.8V6.53394H23.7333V0H65.2667V6.53394ZM17.8 25.448H23.7333V18.914H17.8V25.448ZM65.2667 25.448H71.2V18.914H65.2667V25.448Z" fill="black"/>
<path d="M89 76H83.0667V63.6199H89V76Z" fill="black"/>
</svg>
